<?xml version="1.0" encoding="UTF-8" standalone="no"?>
<svg
  width="100"
  height="100"
  version="1.1"
  id="svg10"
  xmlns="http://www.w3.org/2000/svg"
>
  <defs id="defs14" />
  <polygon points="25,25 0,50 25,75 50,50" fill="#ffce9e" id="polygon2" />
  <polygon points="50,0 25,25 50,50 75,25" fill="#d18b47" id="polygon4" />
  <polygon points="75,25 50,50 75,75 100,50" fill="#ffce9e" id="polygon6" />
  <polygon points="50,50 25,75 50,100 75,75" fill="#d18b47" id="polygon8" />
  <path
    d="m 38.51091,33.498961 c 3.17947,1.127228 7.606093,1.821536 12.521568,1.821536 4.915476,0 9.353647,-0.673887 12.533117,-1.821536 2.790697,-0.988367 4.515155,-2.185027 4.515155,-3.357181 0,-1.172155 -1.724458,-2.36473 -4.515155,-3.353097 -3.17947,-1.127228 -7.606093,-1.82562 -12.521569,-1.82562 -4.915476,0 -9.342098,0.698392 -12.533116,1.82562 -5.908579,2.095175 -6.074097,4.55384 0,6.710278 z m 23.86527,28.793341 a 1.9246186,2.0420807 0 1 1 -1.901523,2.04208 1.9015232,2.0175758 0 0 1 1.901523,-2.04208 z m 0,-11.435655 a 1.9053724,2.0216599 0 1 1 -1.901523,2.042081 1.9015232,2.0175758 0 0 1 1.901523,-2.042081 z m 0,-11.897162 a 1.9053724,2.0216599 0 1 1 -1.901523,2.021659 1.9015232,2.0175758 0 0 1 1.901523,-2.009407 z m 5.696871,18.378726 a 15.185241,16.112017 0 0 1 -3.756855,1.886883 c -3.410424,1.225248 -8.098795,1.968568 -13.27217,1.968568 -5.173375,0 -9.861745,-0.74332 -13.302964,-1.956316 a 15.346909,16.283552 0 0 1 -3.726061,-1.858293 v 7.694559 c 0.219406,1.09456 1.893824,2.1932 4.492059,3.11213 3.179471,1.12723 7.606093,1.82562 12.521569,1.82562 4.915476,0 9.342099,-0.69839 12.521569,-1.82562 1.924618,-0.68205 3.344987,-1.46213 4.037849,-2.26671 0.573537,-0.66572 0.485004,-1.10272 0.485004,-1.89505 V 57.350464 Z M 31.582283,30.154032 c 0,-2.409655 2.359582,-4.443567 6.158779,-5.795425 3.441219,-1.212996 8.141137,-1.964481 13.302964,-1.964481 5.161827,0 9.861746,0.751485 13.287567,1.964481 3.425821,1.212996 5.743061,3.026364 6.127985,5.146044 a 1.1971128,1.2701742 0 0 1 0.06929,0.432921 v 35.42602 c 0,2.45049 -4.422773,4.62735 -6.185723,5.25223 -3.425822,1.22525 -8.12574,1.96448 -13.287567,1.96448 -5.161827,0 -9.873293,-0.76782 -13.314512,-1.96448 -1.805292,-0.63713 -6.158779,-2.74047 -6.158779,-5.25223 v -0.81684 q 0.02695,-17.202484 0,-34.39272 z m 2.448115,23.541107 c 0.219406,1.094556 1.893824,2.189111 4.480512,3.112131 3.17947,1.127229 7.606093,1.82562 12.521568,1.82562 4.915476,0 9.353647,-0.706559 12.533117,-1.82562 2.790697,-0.988367 4.515155,-2.185026 4.515155,-3.353096 v 0 -7.482184 a 15.316115,16.250879 0 0 1 -3.764554,1.886882 c -3.425821,1.225249 -8.12574,1.964482 -13.287567,1.964482 -5.161827,0 -9.846348,-0.751486 -13.287567,-1.964482 a 15.346909,16.283552 0 0 1 -3.710664,-1.858293 z m 0,-11.378474 c 0.219406,1.094556 1.893824,2.193195 4.492059,3.112131 3.179471,1.127229 7.606093,1.825621 12.521569,1.825621 4.915476,0 9.342099,-0.698392 12.521569,-1.825621 2.790697,-0.988367 4.515155,-2.185026 4.515155,-3.353096 v 0 -8.033546 a 15.454687,16.397908 0 0 1 -3.764554,1.886883 c -3.410424,1.212996 -8.098795,1.984902 -13.27217,1.984902 -5.173375,0 -9.861745,-0.771906 -13.302964,-1.984902 a 15.346909,16.283552 0 0 1 -3.726061,-1.862378 v 8.250006 z"
    stroke-width="0.396496"
  />
</svg>
